<?xml version="1.0" encoding="UTF-8"?>
<!-- Generator: Adobe Illustrator 21.0.2, SVG Export Plug-In . SVG Version: 6.00 Build 0)  -->
<svg enable-background="new 0 0 24 24" version="1.1" viewBox="0 0 24 24" xml:space="preserve" xmlns="http://www.w3.org/2000/svg" xmlns:cc="http://creativecommons.org/ns#" xmlns:dc="http://purl.org/dc/elements/1.1/" xmlns:rdf="http://www.w3.org/1999/02/22-rdf-syntax-ns#"><metadata><rdf:RDF><cc:Work rdf:about=""><dc:format>image/svg+xml</dc:format><dc:type rdf:resource="http://purl.org/dc/dcmitype/StillImage"/><dc:title>instagram</dc:title></cc:Work></rdf:RDF></metadata><style type="text/css">
	.st0{opacity:0.5;}
	.st1{fill:#606060;}
</style><title>instagram</title><desc>Created with Sketch.</desc><g class="st0"><g id="Home" transform="translate(-442 -1622)"><g id="Group" transform="translate(442 1622)"><g id="SM-icons"><g id="instagram"><path class="st1" d="m6.9 1.8c-2.9 0-5.1 2.3-5.1 5.1v10.3c0 2.8 2.3 5.1 5.1 5.1h9.6c2.8 0 5.1-2.3 5.1-5.1v-10.3c0-2.8-2.3-5.1-5.1-5.1h-9.6zm9.6 22.2h-9.6c-3.8 0-6.9-3.1-6.9-6.9v-10.2c0-3.8 3.1-6.9 6.9-6.9h9.6c3.8 0 6.9 3.1 6.9 6.9v10.3c-0.1 3.7-3.1 6.8-6.9 6.8z"/><path class="st1" d="m11.9 7.7c-1.1 0-2.1 0.4-2.8 1.2-0.8 0.8-1.3 2-1.3 3.2 0 2.4 1.9 4.3 4.3 4.3s4.3-1.9 4.3-4.3c0-1.2-0.3-2.3-1-3-0.7-0.8-1.9-1.2-3.3-1.3l-0.2-0.1m0.1 10.8c-3.6 0-6.5-2.9-6.5-6.5 0-1.8 0.7-3.5 2-4.7 1.2-1.2 2.9-1.8 4.6-1.8 2 0.1 3.7 0.7 4.9 2 1.1 1.2 1.7 2.7 1.6 4.6 0 1.7-0.7 3.4-1.9 4.6-1.3 1.1-2.9 1.8-4.7 1.8"/><path class="st1" d="m19.2 5.5c0 0.8-0.6 1.4-1.4 1.4s-1.4-0.6-1.4-1.4 0.6-1.4 1.4-1.4 1.4 0.6 1.4 1.4"/></g></g></g></g></g></svg>
