<?xml version="1.0" encoding="UTF-8"?>
<!-- Generator: Adobe Illustrator 21.0.2, SVG Export Plug-In . SVG Version: 6.00 Build 0)  -->
<svg enable-background="new 0 0 24 20" version="1.1" viewBox="0 0 24 20" xml:space="preserve" xmlns="http://www.w3.org/2000/svg" xmlns:cc="http://creativecommons.org/ns#" xmlns:dc="http://purl.org/dc/elements/1.1/" xmlns:rdf="http://www.w3.org/1999/02/22-rdf-syntax-ns#"><metadata><rdf:RDF><cc:Work rdf:about=""><dc:format>image/svg+xml</dc:format><dc:type rdf:resource="http://purl.org/dc/dcmitype/StillImage"/><dc:title>twitter</dc:title></cc:Work></rdf:RDF></metadata><style type="text/css">
	.st0{opacity:0.5;}
	.st1{filter:url(#Adobe_OpacityMaskFilter);}
	.st2{fill:#FFFFFF;}
	.st3{mask:url(#mask-2);fill:#606060;}
</style><title>twitter</title><desc>Created with Sketch.</desc><g class="st0"><g id="Home" transform="translate(-521 -1624)"><g id="Group" transform="translate(442 1622)"><g id="SM-icons"><g id="twitter" transform="translate(79.653 2.7429)"><defs><filter id="Adobe_OpacityMaskFilter" x="0" y="0" width="23.3" height="18.5" filterUnits="userSpaceOnUse"><feColorMatrix values="1 0 0 0 0  0 1 0 0 0  0 0 1 0 0  0 0 0 1 0"/></filter></defs><mask id="mask-2" x="0" y="0" width="23.3" height="18.5" maskUnits="userSpaceOnUse"><g class="st1"><polygon class="st2" points="23.3 0 23.3 18.5 0 18.5 0 0"/></g></mask><path class="st3" d="m23.3 2.2c-0.9 0.4-1.8 0.6-2.8 0.7 1-0.6 1.7-1.5 2.1-2.6-0.9 0.5-1.9 0.9-3 1.1-0.8-0.8-2.1-1.4-3.4-1.4-2.6 0-4.8 2.1-4.8 4.7 0 0.4 0 0.7 0.1 1.1-4-0.2-7.5-2.1-9.9-4.9-0.4 0.7-0.6 1.5-0.6 2.3 0 1.6 0.8 3 2.1 3.9-0.8 0-1.5-0.2-2.2-0.6v0.1c0 2.3 1.7 4.1 3.8 4.6-0.4 0.1-0.8 0.2-1.3 0.2-0.3 0-0.6 0-0.9-0.1 0.6 1.9 2.4 3.2 4.5 3.2-1.6 1.3-3.7 2-5.9 2-0.4 0-0.8 0-1.1-0.1 2.1 1.3 4.6 2.1 7.3 2.1 8.8 0 13.6-7.1 13.6-13.3v-0.6c1-0.6 1.8-1.5 2.4-2.4" mask="url(#mask-2)"/></g></g></g></g></g></svg>
