<?xml version="1.0" encoding="utf-8"?>
<!-- Generator: Adobe Illustrator 21.0.2, SVG Export Plug-In . SVG Version: 6.00 Build 0)  -->
<svg version="1.1" id="Layer_1" xmlns="http://www.w3.org/2000/svg" xmlns:xlink="http://www.w3.org/1999/xlink" x="0px" y="0px"
	 viewBox="0 0 97 33" style="enable-background:new 0 0 97 33;" xml:space="preserve">
<style type="text/css">
	.st0{fill:#FFFFFF;}
</style>
<g id="Logo-1" transform="translate(429.000000, 11.000000)">
	<g id="Logo-white" transform="translate(35.538462, 22.000000)">
		<g id="Stroke-1">
			<path class="st0" d="M-444.1-2.4c-0.4,0-0.7-0.3-0.7-0.7l-1.2-24.8l-5.1,15.5c-0.1,0.3-0.4,0.5-0.8,0.5c-0.4,0-0.6-0.3-0.7-0.7
				l-1.4-13c-2.6,7.8-7.8,13.4-8.9,13.6c-0.4,0.1-0.8-0.2-0.9-0.6c-0.1-0.4,0.1-0.7,0.5-0.9c1-0.6,7.2-7.3,8.9-16.5
				c0.1-0.4,0.4-0.6,0.8-0.6c0.4,0,0.7,0.3,0.7,0.7l1.4,13.6l5.3-16c0.1-0.3,0.5-0.6,0.8-0.5c0.4,0,0.6,0.3,0.6,0.7l1.4,28.8
				C-443.3-2.8-443.6-2.5-444.1-2.4C-444-2.4-444.1-2.4-444.1-2.4z M-463.1-13.4C-463.1-13.4-463.1-13.4-463.1-13.4
				C-463.1-13.4-463.1-13.4-463.1-13.4z"/>
		</g>
		<g id="Stroke-3">
			<path class="st0" d="M-439-11.5c-0.9,0-1.6-0.4-2-0.8c-1.3-1.2-1.6-3.6-1-6.6c0.8-4,5.1-4.3,7.2-3.9c0.4,0.1,0.6,0.4,0.6,0.8
				c-0.1,1.6-0.6,9.5-3.7,10.3C-438.4-11.5-438.7-11.5-439-11.5z M-436.4-21.4c-1.5,0-3.7,0.4-4.2,2.8c-0.5,2.4-0.3,4.4,0.6,5.2
				c0.4,0.4,0.9,0.5,1.6,0.3c1.4-0.4,2.3-4.9,2.6-8.3C-436-21.4-436.2-21.4-436.4-21.4z"/>
		</g>
		<g id="Stroke-5">
			<path class="st0" d="M-416.9-11.5c-0.3,0-1.7-0.1-2.9-1.3c-1.7-1.7-2.3-4.9-1.8-9.4c0-0.4,0.4-0.7,0.8-0.7c0.4,0,0.7,0.4,0.7,0.8
				c-0.5,5,0.5,7.2,1.4,8.2c0.9,0.9,1.8,0.9,1.8,0.9c0.4,0,0.8,0.3,0.8,0.7S-416.4-11.5-416.9-11.5
				C-416.9-11.5-416.9-11.5-416.9-11.5z"/>
		</g>
		<g id="Stroke-7">
			<path class="st0" d="M-423.7-10.7c-1.8,0-2.9-2.8-3.4-4.4c-0.5-1.9-0.7-4.6-0.3-6.3h-1.4c0.2,2.4,0.5,8.6-2.8,10
				c-0.9,0.4-1.6,0.1-2-0.1c-2.2-1.4-2.2-7.7-2.2-9c0-0.4,0.3-0.7,0.8-0.7c0,0,0,0,0,0c0.4,0,0.7,0.3,0.7,0.8c0,2.8,0.5,7,1.6,7.7
				c0.1,0.1,0.3,0.1,0.5,0c2.4-1,2.1-7.2,1.8-9.3c0-0.2,0-0.4,0.2-0.6c0.1-0.2,0.3-0.3,0.6-0.3h3.4c0.4,0,0.7,0.3,0.7,0.6
				c0.1,0.3-0.1,0.6-0.3,0.8c-0.3,0.6-0.6,3.3,0.2,6c0.6,2.3,1.5,3.4,1.9,3.4c0,0,0,0,0,0c0,0,1-0.1,1.9-4.3
				c0.1-0.4,0.5-0.7,0.9-0.6c0.4,0.1,0.7,0.5,0.6,0.9C-421.1-12.4-422.2-10.7-423.7-10.7C-423.7-10.7-423.7-10.7-423.7-10.7z
				 M-425.9-21.4C-425.9-21.4-425.9-21.4-425.9-21.4C-425.9-21.4-425.9-21.4-425.9-21.4z"/>
		</g>
		<g id="Stroke-9">
			<path class="st0" d="M-421-23.8c-0.1,0-0.3,0-0.4-0.1c-0.4-0.2-0.5-0.7-0.3-1l2.5-4.1c0.2-0.4,0.7-0.5,1-0.3
				c0.4,0.2,0.5,0.7,0.3,1l-2.5,4.1C-420.5-24-420.8-23.8-421-23.8z"/>
		</g>
		<g id="Stroke-11">
			<path class="st0" d="M-413.7-11.5c-0.2,0-0.3,0-0.5,0c-1.6-0.3-3.3-2-3.4-5.8c0-1.9,0.5-3.3,1.6-4.2c2.2-1.8,5.6-1.1,5.8-1.1
				c0.3,0.1,0.6,0.3,0.6,0.7c0,0.2,0.5,4.7-0.8,8.1C-411.1-12.4-412.3-11.5-413.7-11.5z M-412-21.4c-1,0-2.2,0.2-3.1,0.9
				c-0.8,0.6-1.1,1.7-1.1,3.1c0.1,3,1.2,4.2,2.2,4.4c0.8,0.1,1.6-0.5,2.1-1.5c0.9-2.4,0.9-5.5,0.8-6.8
				C-411.3-21.3-411.6-21.4-412-21.4z"/>
		</g>
		<g id="Stroke-13">
			<path class="st0" d="M-406.9-11.5c-0.7,0-1.3-0.2-1.8-0.6c-2.2-1.7-2.3-6.2-2.3-6.7c0-0.4,0.3-0.8,0.7-0.8c0.4,0,0.8,0.3,0.8,0.7
				c0,1.2,0.4,4.5,1.7,5.5c0.4,0.3,0.9,0.4,1.5,0.2c0.4-0.1,0.8,0.1,0.9,0.5c0.1,0.4-0.1,0.8-0.5,0.9
				C-406.3-11.5-406.6-11.5-406.9-11.5z"/>
		</g>
		<g id="Stroke-15">
			<path class="st0" d="M-402.8-13.1c-0.1,0-0.1,0-0.2,0c-0.4,0-0.7-0.4-0.7-0.8c0-0.4,0.4-0.8,0.8-0.7c0.2,0,5.6,0.1,8.3-4.9
				c1.8-3.4,2.1-6.4,0.9-8.6c-1.1-1.9-3.4-3-6.4-3c-6.5-0.2-9.5,4.3-9.6,4.5c-0.2,0.3-0.7,0.4-1,0.2c-0.3-0.2-0.4-0.7-0.2-1
				c0.1-0.2,3.5-5.3,10.9-5.2c3.5,0.1,6.2,1.4,7.6,3.8c1.5,2.7,1.3,6.2-0.8,10.1C-396.2-13.4-401.8-13.1-402.8-13.1z"/>
		</g>
		<g id="Stroke-17">
			<path class="st0" d="M-403.7-0.8c-0.4,0-0.8-0.3-0.8-0.8v-27.2c0-0.4,0.3-0.8,0.8-0.8s0.8,0.3,0.8,0.8v27.2
				C-403-1.1-403.3-0.8-403.7-0.8z"/>
		</g>
		<g id="Stroke-19">
			<path class="st0" d="M-376.6-11.5c0,0-0.1,0-0.1,0c-0.4-0.1-3.6-0.8-3-9.8c0-0.4,0.4-0.7,0.8-0.7c0.4,0,0.7,0.4,0.7,0.8
				c-0.5,7.6,1.8,8.3,1.8,8.3c0.4,0.1,0.7,0.4,0.6,0.8C-375.8-11.8-376.2-11.5-376.6-11.5z"/>
		</g>
		<g id="Stroke-21">
			<path class="st0" d="M-382-11.5c-0.1,0-0.2,0-0.3,0c-2.4-0.4-3.1-6.9-3.2-9.7c0-0.4,0.3-0.8,0.7-0.8c0.4,0,0.8,0.3,0.8,0.7
				c0.2,4.2,1.2,8.2,2,8.3c0,0,0.8,0,2.3-3.7c0.2-0.4,0.6-0.6,1-0.4c0.4,0.2,0.6,0.6,0.4,1C-379.6-12.9-380.8-11.5-382-11.5z"/>
		</g>
		<g id="Stroke-23">
			<path class="st0" d="M-374.5-2.4c-0.3,0-0.7,0-1,0c-0.4,0-0.7-0.4-0.7-0.8c0-0.4,0.4-0.8,0.8-0.7c2.4,0.2,4.1-0.3,5.1-1.3
				c1.2-1.3,1.5-3.6,1-7.5c-0.1-0.8-0.3-1.7-0.9-1.9c-0.9-0.3-2.8,1.1-3.9,2.2c-0.3,0.3-0.7,0.3-1,0.1c-0.3-0.2-0.4-0.6-0.3-0.9
				l3.8-8h-4.3c-0.4,0-0.8-0.3-0.8-0.8s0.3-0.8,0.8-0.8h5.4c0.3,0,0.5,0.1,0.6,0.3c0.1,0.2,0.2,0.5,0,0.7l-2.9,6.2
				c0.9-0.5,1.9-0.8,2.8-0.5c1.1,0.3,1.7,1.4,1.9,3.1c0.4,3.2,0.5,6.7-1.4,8.8C-370.4-3-372.1-2.4-374.5-2.4z"/>
		</g>
		<g id="Stroke-25">
			<path class="st0" d="M-388.6-11.5c-0.3,0-0.5,0-0.8-0.1c-1.5-0.4-2.9-2.2-2.7-5.8c0.1-1.7,0.8-3,2-3.8c2.2-1.5,5.4-0.5,5.6-0.4
				c0.2,0.1,0.4,0.2,0.5,0.4c0.1,0.2,0.1,0.4,0,0.6c0,0.1-0.1,0.5-0.1,0.8c-0.1,1.5-0.4,4.3-1.5,6.3
				C-386.3-12.2-387.5-11.5-388.6-11.5z M-387.1-20.5c-0.7,0-1.5,0.1-2.2,0.6c-0.8,0.5-1.2,1.4-1.3,2.7c-0.2,2.8,0.7,4,1.6,4.3
				c0.7,0.2,1.6-0.2,2-1.2c0.9-1.8,1.2-4.4,1.3-5.8c0-0.1,0-0.3,0-0.4C-386-20.5-386.5-20.5-387.1-20.5z"/>
		</g>
		<g id="Fill-27">
			<path class="st0" d="M-378.8-23.4c-0.6,0-1-0.4-1-1s0.4-1,1-1s1,0.4,1,1S-378.3-23.4-378.8-23.4z"/>
			<path class="st0" d="M-378.8-22.9c-0.8,0-1.5-0.7-1.5-1.5c0-0.8,0.7-1.5,1.5-1.5s1.5,0.7,1.5,1.5
				C-377.3-23.6-378-22.9-378.8-22.9z M-378.8-24.9c-0.3,0-0.5,0.2-0.5,0.5c0,0.3,0.2,0.5,0.5,0.5s0.5-0.2,0.5-0.5
				C-378.3-24.7-378.6-24.9-378.8-24.9z"/>
		</g>
	</g>
</g>
</svg>
