<?xml version="1.0" encoding="UTF-8"?>
<svg enable-background="new 0 0 97 33" version="1.1" viewBox="0 0 97 33" xml:space="preserve" xmlns="http://www.w3.org/2000/svg"><style type="text/css">
	.st0{fill:#FFFFFF;}
</style><g transform="translate(429 11)"><g id="Logo-white" transform="translate(35.538 22)"><path class="st0" d="m-444.1-2.4c-0.4 0-0.7-0.3-0.7-0.7l-1.2-24.8-5.1 15.5c-0.1 0.3-0.4 0.5-0.8 0.5s-0.6-0.3-0.7-0.7l-1.4-13c-2.6 7.8-7.8 13.4-8.9 13.6-0.4 0.1-0.8-0.2-0.9-0.6s0.1-0.7 0.5-0.9c1-0.6 7.2-7.3 8.9-16.5 0.1-0.4 0.4-0.6 0.8-0.6s0.7 0.3 0.7 0.7l1.4 13.6 5.3-16c0.1-0.3 0.5-0.6 0.8-0.5 0.4 0 0.6 0.3 0.6 0.7l1.4 28.8c0.1 0.5-0.2 0.8-0.7 0.9 0.1 0 0 0 0 0zm-19-11z"/><path class="st0" d="m-439-11.5c-0.9 0-1.6-0.4-2-0.8-1.3-1.2-1.6-3.6-1-6.6 0.8-4 5.1-4.3 7.2-3.9 0.4 0.1 0.6 0.4 0.6 0.8-0.1 1.6-0.6 9.5-3.7 10.3-0.5 0.2-0.8 0.2-1.1 0.2zm2.6-9.9c-1.5 0-3.7 0.4-4.2 2.8s-0.3 4.4 0.6 5.2c0.4 0.4 0.9 0.5 1.6 0.3 1.4-0.4 2.3-4.9 2.6-8.3h-0.6z"/><path class="st0" d="m-416.9-11.5c-0.3 0-1.7-0.1-2.9-1.3-1.7-1.7-2.3-4.9-1.8-9.4 0-0.4 0.4-0.7 0.8-0.7s0.7 0.4 0.7 0.8c-0.5 5 0.5 7.2 1.4 8.2 0.9 0.9 1.8 0.9 1.8 0.9 0.4 0 0.8 0.3 0.8 0.7s-0.3 0.8-0.8 0.8z"/><path class="st0" d="m-423.7-10.7c-1.8 0-2.9-2.8-3.4-4.4-0.5-1.9-0.7-4.6-0.3-6.3h-1.4c0.2 2.4 0.5 8.6-2.8 10-0.9 0.4-1.6 0.1-2-0.1-2.2-1.4-2.2-7.7-2.2-9 0-0.4 0.3-0.7 0.8-0.7 0.4 0 0.7 0.3 0.7 0.8 0 2.8 0.5 7 1.6 7.7 0.1 0.1 0.3 0.1 0.5 0 2.4-1 2.1-7.2 1.8-9.3 0-0.2 0-0.4 0.2-0.6 0.1-0.2 0.3-0.3 0.6-0.3h3.4c0.4 0 0.7 0.3 0.7 0.6 0.1 0.3-0.1 0.6-0.3 0.8-0.3 0.6-0.6 3.3 0.2 6 0.6 2.3 1.5 3.4 1.9 3.4 0 0 1-0.1 1.9-4.3 0.1-0.4 0.5-0.7 0.9-0.6s0.7 0.5 0.6 0.9c-0.8 3.7-1.9 5.4-3.4 5.4zm-2.2-10.7z"/><path class="st0" d="m-421-23.8c-0.1 0-0.3 0-0.4-0.1-0.4-0.2-0.5-0.7-0.3-1l2.5-4.1c0.2-0.4 0.7-0.5 1-0.3 0.4 0.2 0.5 0.7 0.3 1l-2.5 4.1c-0.1 0.2-0.4 0.4-0.6 0.4z"/><path class="st0" d="m-413.7-11.5h-0.5c-1.6-0.3-3.3-2-3.4-5.8 0-1.9 0.5-3.3 1.6-4.2 2.2-1.8 5.6-1.1 5.8-1.1 0.3 0.1 0.6 0.3 0.6 0.7 0 0.2 0.5 4.7-0.8 8.1-0.7 1.4-1.9 2.3-3.3 2.3zm1.7-9.9c-1 0-2.2 0.2-3.1 0.9-0.8 0.6-1.1 1.7-1.1 3.1 0.1 3 1.2 4.2 2.2 4.4 0.8 0.1 1.6-0.5 2.1-1.5 0.9-2.4 0.9-5.5 0.8-6.8-0.2 0-0.5-0.1-0.9-0.1z"/><path class="st0" d="m-406.9-11.5c-0.7 0-1.3-0.2-1.8-0.6-2.2-1.7-2.3-6.2-2.3-6.7 0-0.4 0.3-0.8 0.7-0.8s0.8 0.3 0.8 0.7c0 1.2 0.4 4.5 1.7 5.5 0.4 0.3 0.9 0.4 1.5 0.2 0.4-0.1 0.8 0.1 0.9 0.5s-0.1 0.8-0.5 0.9c-0.4 0.3-0.7 0.3-1 0.3z"/><path class="st0" d="m-402.8-13.1h-0.2c-0.4 0-0.7-0.4-0.7-0.8s0.4-0.8 0.8-0.7c0.2 0 5.6 0.1 8.3-4.9 1.8-3.4 2.1-6.4 0.9-8.6-1.1-1.9-3.4-3-6.4-3-6.5-0.2-9.5 4.3-9.6 4.5-0.2 0.3-0.7 0.4-1 0.2s-0.4-0.7-0.2-1c0.1-0.2 3.5-5.3 10.9-5.2 3.5 0.1 6.2 1.4 7.6 3.8 1.5 2.7 1.3 6.2-0.8 10.1-3 5.3-8.6 5.6-9.6 5.6z"/><path class="st0" d="m-403.7-0.8c-0.4 0-0.8-0.3-0.8-0.8v-27.2c0-0.4 0.3-0.8 0.8-0.8s0.8 0.3 0.8 0.8v27.2c-0.1 0.5-0.4 0.8-0.8 0.8z"/><path class="st0" d="m-376.6-11.5h-0.1c-0.4-0.1-3.6-0.8-3-9.8 0-0.4 0.4-0.7 0.8-0.7s0.7 0.4 0.7 0.8c-0.5 7.6 1.8 8.3 1.8 8.3 0.4 0.1 0.7 0.4 0.6 0.8 0 0.3-0.4 0.6-0.8 0.6z"/><path class="st0" d="m-382-11.5h-0.3c-2.4-0.4-3.1-6.9-3.2-9.7 0-0.4 0.3-0.8 0.7-0.8s0.8 0.3 0.8 0.7c0.2 4.2 1.2 8.2 2 8.3 0 0 0.8 0 2.3-3.7 0.2-0.4 0.6-0.6 1-0.4s0.6 0.6 0.4 1c-1.3 3.2-2.5 4.6-3.7 4.6z"/><path class="st0" d="m-374.5-2.4h-1c-0.4 0-0.7-0.4-0.7-0.8s0.4-0.8 0.8-0.7c2.4 0.2 4.1-0.3 5.1-1.3 1.2-1.3 1.5-3.6 1-7.5-0.1-0.8-0.3-1.7-0.9-1.9-0.9-0.3-2.8 1.1-3.9 2.2-0.3 0.3-0.7 0.3-1 0.1s-0.4-0.6-0.3-0.9l3.8-8h-4.3c-0.4 0-0.8-0.3-0.8-0.8s0.3-0.8 0.8-0.8h5.4c0.3 0 0.5 0.1 0.6 0.3s0.2 0.5 0 0.7l-2.9 6.2c0.9-0.5 1.9-0.8 2.8-0.5 1.1 0.3 1.7 1.4 1.9 3.1 0.4 3.2 0.5 6.7-1.4 8.8-0.9 1.2-2.6 1.8-5 1.8z"/><path class="st0" d="m-388.6-11.5c-0.3 0-0.5 0-0.8-0.1-1.5-0.4-2.9-2.2-2.7-5.8 0.1-1.7 0.8-3 2-3.8 2.2-1.5 5.4-0.5 5.6-0.4s0.4 0.2 0.5 0.4 0.1 0.4 0 0.6c0 0.1-0.1 0.5-0.1 0.8-0.1 1.5-0.4 4.3-1.5 6.3-0.7 1.3-1.9 2-3 2zm1.5-9c-0.7 0-1.5 0.1-2.2 0.6-0.8 0.5-1.2 1.4-1.3 2.7-0.2 2.8 0.7 4 1.6 4.3 0.7 0.2 1.6-0.2 2-1.2 0.9-1.8 1.2-4.4 1.3-5.8v-0.4c-0.3-0.2-0.8-0.2-1.4-0.2z"/><path class="st0" d="m-378.8-23.4c-0.6 0-1-0.4-1-1s0.4-1 1-1 1 0.4 1 1-0.5 1-1 1z"/><path class="st0" d="m-378.8-22.9c-0.8 0-1.5-0.7-1.5-1.5s0.7-1.5 1.5-1.5 1.5 0.7 1.5 1.5-0.7 1.5-1.5 1.5zm0-2c-0.3 0-0.5 0.2-0.5 0.5s0.2 0.5 0.5 0.5 0.5-0.2 0.5-0.5-0.3-0.5-0.5-0.5z"/></g></g></svg>
